<?xml version="1.0" encoding="utf-8"?>
<!-- Generator: Adobe Illustrator 28.1.0, SVG Export Plug-In . SVG Version: 6.00 Build 0)  -->
<svg version="1.1" id="圖層_1" xmlns="http://www.w3.org/2000/svg" xmlns:xlink="http://www.w3.org/1999/xlink" x="0px" y="0px"
	 viewBox="0 0 1000 1000" style="enable-background:new 0 0 1000 1000;" xml:space="preserve">
<path d="M760.6,383.9c-28.5-30.7-65.9-46.4-112.3-46.4c-62.9,0-112.3,35.2-148.3,105.6c0-0.1-0.1-0.2-0.1-0.3
	c-10.4,20.2-28.4,59.4-29.6,62.5c-27,68.3-65.9,102.5-116.3,102.5c-30.7,0-54.7-9.7-72.6-30.7c-18.7-20.2-27.7-45.7-27.7-77.1
	c0-32.2,9-58.4,27.7-77.9c7.2-7.8,15.5-14.2,25-19c-0.1,16.8-0.4,45-2.1,55c-2.1,13.1-8.9,24-20.3,32.6c-4.7,3.3-5.2,2.8-6.3,4
	c-2.1,2.3-0.2,5.3,1.4,5.3c2.4-0.1,5.1-0.4,5.1-0.4v0c22.2-2,36.2-5.1,42.1-9.2c9.3-4.8,15.1-13.9,17.5-27.1
	c1.3-6.5,2.3-51.4,3-70.8c3.1-0.2,6.3-0.3,9.5-0.3c1.4,0,2.7,0.1,4.1,0.1v74.9c0,16.5,7.4,24.8,22.2,24.8H424
	c6.4,0,11.6-5.2,11.6-11.6c0-6.4-5.2-11.6-11.6-11.6h-22.4v-65.5c19.2,10.3,35.9,27.6,50.2,52.1c3,5.1,7.4,5,10-0.3
	c4.4-9,9.1-18,13.3-26.2c2.1-4,4-7.9,5.8-11.4c0.9-1.7,0.7-4.3-0.4-5.9c-35.1-49.5-78-74.2-128.9-74.2c-46.4,0-83.9,15.7-112.3,45.7
	c-28.5,31.5-42.7,70.4-42.7,116.8s14.2,84.6,42.7,114.6c28.5,32.2,65.9,47.9,112.3,47.9c57,0,105-32,144-96.8
	c0.1-0.1,0.1-0.2,0.2-0.3c13.2-25,23.1-46.2,31-64c22.9-51.8,66-110.1,116.9-110.1c30.7,0,55.4,10.5,74.9,30.7
	c7.5,8.4,13.5,17.8,18.1,28.1H633.3c-9.7,0-17.6,7.9-17.6,17.6s7.9,17.6,17.6,17.6h110.5c0.7,0,1.3-0.1,1.9-0.2
	c0.4,4.5,0.7,9.1,0.7,13.9c0,5.3-0.3,10.4-0.8,15.4c-0.6-0.1-1.2-0.2-1.8-0.2H633.3c-9.7,0-17.6,7.9-17.6,17.6v0
	c0,9.7,7.9,17.6,17.6,17.6h103.4c-4.5,10.4-10.5,19.8-17.9,28.1c-18,20.2-43.4,30-74.9,30c-39.9,0-72-20.9-96-62.6
	c-3-5.2-7.4-5.1-10,0.3c-5.7,11.6-12.1,24.2-19.4,37.9c-0.9,1.7-0.8,4.4,0.3,5.9c33.8,48.2,76.9,72.4,129.6,72.4
	c45.7,0,83.1-15,112.3-46.4c28.5-30,42.7-68.9,42.7-115.3S789.1,415.4,760.6,383.9z"/>
</svg>
